<svg xmlns="http://www.w3.org/2000/svg" width="155.97" height="42.52" viewBox="0 0 155.97 42.52"><defs><style>.a{fill:#00008f;}.b{fill:#fff;}.c{fill:#ff1721;}</style></defs><rect class="a" width="42.52" height="42.52"/><path class="b" d="M32.49,30.37c.74,2.07,2.27,7.47,2.88,7.9h-4a7.07,7.07,0,0,0-.19-1.42c-.18-.61-1.63-5.28-1.63-5.28H23.18l-1,1.42s1.21,3.77,1.28,3.95c.13.33.71,1.33.71,1.33H20.31s-.1-.58-.13-.82-.37-1.25-.37-1.25a12,12,0,0,0-1.11,1.4c-.23.44-.34.67-.34.67h-3s-.1-.58-.13-.82-.4-1.33-.4-1.33a15.34,15.34,0,0,0-1.08,1.46,7.23,7.23,0,0,0-.34.69h-3s.84-.8,1.14-1.14c.49-.59,2.34-3,2.34-3l-.74-2.56H6.84s-3.6,4.74-3.75,4.88a15.63,15.63,0,0,0-1.22,1.82H0V37.08L.08,37c.05,0,2.73-3.36,5.18-6.63,2.21-2.85,4.28-5.63,4.46-5.89a19,19,0,0,0,1.08-2h3.27A15.31,15.31,0,0,0,14.26,24c.09.28,2.08,6.81,2.13,6.88l1.09-1.41L15.6,23.71A10.49,10.49,0,0,0,15,22.46h3.81a3.18,3.18,0,0,0,.13,1c.15.48,1,3.43,1,3.43s2.61-3.26,2.76-3.49a2.22,2.22,0,0,0,.32-1h3.18a9.74,9.74,0,0,0-1.6,1.71c-.35.43-3.7,4.7-3.7,4.7s.29,1,.43,1.5c0,.14.07.24.07.25l.2-.25c.87-1.1,4.81-6.27,5.05-6.71a11.15,11.15,0,0,0,.64-1.2h3.1a7.44,7.44,0,0,0,.17,1.18Zm-4.72-4.89a42.5,42.5,0,0,1-3.14,4.24h4.25s-.83-2.53-1-3.1a4.71,4.71,0,0,1-.08-1.11c0-.06,0-.14-.06,0m-16.32,0a41.18,41.18,0,0,1-3.13,4.24h4.24s-.82-2.53-1-3.1a4.37,4.37,0,0,1-.09-1.11c0-.06,0-.14-.06,0m6.4,9.9L19,33.77c-.1-.12-.76-2.11-.76-2.11l-1.13,1.46Z"/><rect class="a" x="51.03" y="3.44" width="2" height="15.82"/><path class="a" d="M56.57,7.54h1.64l.17,1.68h.07a5.56,5.56,0,0,1,3.93-2c2.46,0,3.57,1.59,3.57,4.58v7.43H64V12.09C64,9.9,63.3,9,61.76,9c-1.21,0-2,.63-3.21,1.81v8.49h-2Z"/><path class="a" d="M67.47,7.54h2l2.22,6.65c.34,1.16.72,2.34,1.09,3.45h.09c.34-1.11.72-2.29,1.06-3.45L76.2,7.54h2L74,19.26H71.69Z"/><path class="a" d="M87.05,12.46c0-2.37-1.06-3.64-2.89-3.64-1.64,0-3.13,1.32-3.38,3.64Zm-8.19,1c0-3.83,2.57-6.17,5.25-6.17,3,0,4.68,2.14,4.68,5.5a9,9,0,0,1-.07,1.13H80.81C81,16.36,82.47,18,84.72,18A5.33,5.33,0,0,0,87.63,17l.7,1.3a7,7,0,0,1-3.86,1.21c-3.13,0-5.61-2.29-5.61-6.13"/><path class="a" d="M89.78,17.93l1-1.33A5.27,5.27,0,0,0,94.22,18c1.54,0,2.31-.82,2.31-1.83,0-1.21-1.4-1.74-2.68-2.22-1.66-.6-3.49-1.4-3.49-3.37s1.49-3.33,4-3.33A5.91,5.91,0,0,1,98,8.57l-.94,1.26a4.38,4.38,0,0,0-2.68-1c-1.47,0-2.15.8-2.15,1.69,0,1.11,1.28,1.52,2.61,2,1.68.63,3.56,1.33,3.56,3.55,0,1.9-1.51,3.5-4.29,3.5a7,7,0,0,1-4.36-1.62"/><path class="a" d="M100.44,15.64V9.15H98.7V7.66l1.84-.12.24-3.28h1.66V7.54h3.16V9.15h-3.16v6.51c0,1.45.46,2.27,1.81,2.27a4.44,4.44,0,0,0,1.33-.31l.38,1.49a7.16,7.16,0,0,1-2.17.44c-2.51,0-3.35-1.6-3.35-3.91"/><path class="a" d="M107.65,7.54h1.64l.17,1.68h.07a5.16,5.16,0,0,1,3.64-2,3.07,3.07,0,0,1,3.23,2.24c1.23-1.33,2.44-2.24,3.86-2.24,2.41,0,3.57,1.59,3.57,4.58v7.43h-2V12.09c0-2.19-.7-3.13-2.17-3.13-.92,0-1.86.6-2.94,1.81v8.49h-2V12.09c0-2.19-.7-3.13-2.19-3.13-.87,0-1.86.6-2.94,1.81v8.49h-2Z"/><path class="a" d="M133.89,12.46c0-2.37-1.06-3.64-2.89-3.64-1.64,0-3.14,1.32-3.38,3.64Zm-8.2,1c0-3.83,2.58-6.17,5.26-6.17,3,0,4.68,2.14,4.68,5.5a7.3,7.3,0,0,1-.08,1.13h-7.9c.14,2.48,1.66,4.07,3.9,4.07a5.34,5.34,0,0,0,2.92-.91l.7,1.3a7,7,0,0,1-3.86,1.21c-3.13,0-5.62-2.29-5.62-6.13"/><path class="a" d="M137.52,7.54h1.64l.17,1.68h.07a5.56,5.56,0,0,1,3.93-2c2.46,0,3.57,1.59,3.57,4.58v7.43h-2V12.09c0-2.19-.67-3.13-2.21-3.13-1.21,0-2,.63-3.21,1.81v8.49h-2Z"/><path class="a" d="M150.45,15.64V9.15h-1.74V7.66l1.84-.12.24-3.28h1.66V7.54h3.16V9.15h-3.16v6.51c0,1.45.46,2.27,1.81,2.27a4.44,4.44,0,0,0,1.33-.31l.38,1.49a7.16,7.16,0,0,1-2.17.44c-2.51,0-3.35-1.6-3.35-3.91"/><path class="a" d="M51,22.46h2.41l3,8.44c.39,1.08.75,2.21,1.13,3.3h.1c.38-1.09.7-2.22,1.09-3.3l3-8.44h2.44V38.27H62.33v-8.7c0-1.4.17-3.28.26-4.68H62.5l-1.26,3.6-3,8.19H56.93l-3-8.19-1.26-3.6h-.09c.09,1.4.24,3.28.24,4.68v8.7H51Z"/><path class="a" d="M73.58,35.41V32.15c-3.9.48-5.25,1.45-5.25,2.94,0,1.33.91,1.88,2.07,1.88a4.74,4.74,0,0,0,3.18-1.56m-7.18-.17c0-2.56,2.19-3.84,7.18-4.39,0-1.5-.48-2.94-2.41-2.94a6.31,6.31,0,0,0-3.49,1.25l-.78-1.37a8.73,8.73,0,0,1,4.61-1.52c2.87,0,4.08,1.9,4.08,4.82v7.18H74l-.17-1.39H73.7a6.25,6.25,0,0,1-3.88,1.68,3.18,3.18,0,0,1-3.42-3.32"/><path class="a" d="M78,26.56h1.64l.17,1.68h.07a5.51,5.51,0,0,1,3.93-2c2.46,0,3.57,1.59,3.57,4.58v7.43h-2V31.11c0-2.19-.67-3.13-2.22-3.13-1.2,0-2,.63-3.2,1.81v8.49H78Z"/><path class="a" d="M96.46,35.41V32.15c-3.91.48-5.26,1.45-5.26,2.94,0,1.33.92,1.88,2.07,1.88a4.76,4.76,0,0,0,3.19-1.56m-7.19-.17c0-2.56,2.19-3.84,7.19-4.39,0-1.5-.49-2.94-2.42-2.94a6.31,6.31,0,0,0-3.49,1.25l-.77-1.37a8.66,8.66,0,0,1,4.6-1.52c2.87,0,4.08,1.9,4.08,4.82v7.18H96.82l-.17-1.39h-.07a6.28,6.28,0,0,1-3.89,1.68,3.18,3.18,0,0,1-3.42-3.32"/><path class="a" d="M107.59,30.16a2.49,2.49,0,1,0-5,0,2.49,2.49,0,1,0,5,0M109.11,39c0-1-.85-1.35-2.37-1.35h-2a6.3,6.3,0,0,1-1.52-.18A2.26,2.26,0,0,0,102,39.32c0,1.17,1.28,1.92,3.4,1.92s3.72-1.08,3.72-2.23m-8.85.56A3.16,3.16,0,0,1,102,37.09V37a2,2,0,0,1-1-1.77,2.54,2.54,0,0,1,1.28-2v-.09a3.8,3.8,0,0,1-1.52-2.95c0-2.39,2-3.89,4.41-3.89a5,5,0,0,1,1.67.27h4.07V28h-2.41a3.06,3.06,0,0,1,1,2.25c0,2.34-1.9,3.8-4.29,3.8a4.29,4.29,0,0,1-1.76-.38,1.64,1.64,0,0,0-.75,1.3c0,.7.49,1.2,2.08,1.2h2.26c2.73,0,4.1.78,4.1,2.61,0,2-2.29,3.78-5.93,3.78-2.87,0-4.84-1.06-4.84-3"/><path class="a" d="M119.69,31.47c0-2.36-1.06-3.64-2.89-3.64-1.64,0-3.14,1.33-3.38,3.64Zm-8.2,1c0-3.83,2.58-6.17,5.26-6.17,3,0,4.68,2.14,4.68,5.49a7.44,7.44,0,0,1-.08,1.14h-7.9c.14,2.48,1.66,4.07,3.9,4.07a5.34,5.34,0,0,0,2.92-.91l.7,1.3a7,7,0,0,1-3.86,1.2c-3.13,0-5.62-2.29-5.62-6.12"/><path class="a" d="M123.72,26.56h1.64l.17,2.12h.07a4,4,0,0,1,3.33-2.41,2.88,2.88,0,0,1,1.25.24l-.38,1.73a3.36,3.36,0,0,0-1.14-.19c-1,0-2.17.72-3,2.7v7.53h-2Z"/><path class="a" d="M130.09,37l1-1.33a5.29,5.29,0,0,0,3.45,1.4c1.55,0,2.32-.82,2.32-1.83,0-1.21-1.4-1.74-2.68-2.22-1.66-.6-3.5-1.4-3.5-3.38s1.5-3.32,4-3.32a5.86,5.86,0,0,1,3.64,1.32l-.94,1.26a4.3,4.3,0,0,0-2.68-1c-1.47,0-2.14.8-2.14,1.69,0,1.11,1.28,1.52,2.6,2,1.69.63,3.57,1.33,3.57,3.55,0,1.9-1.52,3.49-4.29,3.49A7.06,7.06,0,0,1,130.09,37"/><polygon class="c" points="40.13 0 23.91 21 26.35 21 42.52 0 40.13 0"/></svg>